<svg width="58" height="22" viewBox="0 0 58 22" fill="none" xmlns="http://www.w3.org/2000/svg">
<path d="M0.876 21V0.839999H3.844V21H0.876ZM12.1666 21.336C10.4866 21.336 9.16123 20.8133 8.19056 19.768C7.23856 18.7227 6.76256 17.164 6.76256 15.092V7.112H9.73056V14.784C9.73056 17.472 10.8319 18.816 13.0346 18.816C14.1359 18.816 15.0412 18.424 15.7506 17.64C16.4599 16.856 16.8146 15.736 16.8146 14.28V7.112H19.7826V21H17.1506L16.9266 18.564C16.4972 19.4227 15.8626 20.104 15.0226 20.608C14.2012 21.0933 13.2492 21.336 12.1666 21.336ZM22.9982 21V7.112H25.6302L25.8542 9.548C26.2835 8.68933 26.9089 8.01733 27.7302 7.532C28.5702 7.028 29.5315 6.776 30.6142 6.776C32.2942 6.776 33.6102 7.29867 34.5622 8.344C35.5329 9.38933 36.0182 10.948 36.0182 13.02V21H33.0782V13.328C33.0782 10.64 31.9769 9.296 29.7742 9.296C28.6729 9.296 27.7582 9.688 27.0302 10.472C26.3209 11.256 25.9662 12.376 25.9662 13.832V21H22.9982ZM43.6578 21.336C42.4818 21.336 41.5111 21.14 40.7458 20.748C39.9805 20.356 39.4111 19.8427 39.0378 19.208C38.6645 18.5547 38.4778 17.8453 38.4778 17.08C38.4778 15.736 39.0005 14.672 40.0458 13.888C41.0911 13.104 42.5845 12.712 44.5258 12.712H48.1658V12.46C48.1658 11.3773 47.8671 10.5653 47.2698 10.024C46.6911 9.48267 45.9351 9.212 45.0018 9.212C44.1805 9.212 43.4618 9.41733 42.8458 9.828C42.2485 10.22 41.8845 10.808 41.7538 11.592H38.7858C38.8791 10.584 39.2151 9.72533 39.7938 9.016C40.3911 8.288 41.1378 7.73733 42.0338 7.364C42.9485 6.972 43.9471 6.776 45.0298 6.776C46.9711 6.776 48.4738 7.28933 49.5378 8.316C50.6018 9.324 51.1338 10.7053 51.1338 12.46V21H48.5578L48.3058 18.62C47.9138 19.3853 47.3445 20.0293 46.5978 20.552C45.8511 21.0747 44.8711 21.336 43.6578 21.336ZM44.2458 18.928C45.0485 18.928 45.7205 18.7413 46.2618 18.368C46.8218 17.976 47.2511 17.4627 47.5498 16.828C47.8671 16.1933 48.0631 15.4933 48.1378 14.728H44.8338C43.6578 14.728 42.8178 14.9333 42.3138 15.344C41.8285 15.7547 41.5858 16.268 41.5858 16.884C41.5858 17.5187 41.8191 18.0227 42.2858 18.396C42.7711 18.7507 43.4245 18.928 44.2458 18.928ZM55.2104 21.168C54.6504 21.168 54.1838 20.9907 53.8104 20.636C53.4558 20.2627 53.2784 19.824 53.2784 19.32C53.2784 18.7973 53.4558 18.3587 53.8104 18.004C54.1838 17.6307 54.6504 17.444 55.2104 17.444C55.7704 17.444 56.2278 17.6307 56.5824 18.004C56.9371 18.3587 57.1144 18.7973 57.1144 19.32C57.1144 19.824 56.9371 20.2627 56.5824 20.636C56.2278 20.9907 55.7704 21.168 55.2104 21.168Z" fill="white"/>
</svg>
